<svg version="1.2" xmlns="http://www.w3.org/2000/svg" viewBox="0 0 170 144" width="170" height="144">
	<style>
		.s0 { fill: gold } 
	</style>
	<path id="레이어 8" fill-rule="evenodd" class="s0" d="m70.71 29.14c0-3.95-3.19-7.14-7.14-7.14-3.95 0-7.14 3.19-7.14 7.14v14.29h-14.29c-3.95 0-7.14 3.19-7.14 7.14 0 3.95 3.19 7.14 7.14 7.14h21.43c3.95 0 7.14-3.19 7.14-7.14zm-28.57 57.14c-3.95 0-7.14 3.2-7.14 7.15 0 3.95 3.19 7.14 7.14 7.14h14.29v14.29c0 3.95 3.19 7.14 7.14 7.14 3.95 0 7.14-3.19 7.14-7.14v-21.43c0-3.95-3.19-7.15-7.14-7.15zm71.43-57.14c0-3.95-3.19-7.14-7.14-7.14-3.95 0-7.15 3.19-7.15 7.14v21.43c0 3.95 3.2 7.14 7.15 7.14h21.43c3.95 0 7.14-3.19 7.14-7.14 0-3.95-3.19-7.14-7.14-7.14h-14.29zm-7.14 57.14c-3.95 0-7.15 3.19-7.15 7.14v21.43c0 3.95 3.2 7.14 7.15 7.14 3.95 0 7.14-3.19 7.14-7.14v-14.28h14.29c3.95 0 7.14-3.2 7.14-7.15 0-3.95-3.19-7.14-7.14-7.14z"/>
</svg>
