<svg version="1.2" xmlns="http://www.w3.org/2000/svg" viewBox="0 0 170 144" width="170" height="144">
	<style>
		.s0 { fill: gold } 
	</style>
	<path id="레이어 7" fill-rule="evenodd" class="s0" d="m42.14 22c-3.95 0-7.14 3.19-7.14 7.14v21.43c0 3.95 3.19 7.14 7.14 7.14 3.95 0 7.15-3.19 7.15-7.14v-14.28h14.28c3.95 0 7.14-3.2 7.14-7.15 0-3.95-3.19-7.14-7.14-7.14zm7.14 71.43c0-3.95-3.19-7.14-7.14-7.14-3.95 0-7.14 3.19-7.14 7.14v21.43c0 3.95 3.19 7.14 7.14 7.14h21.43c3.95 0 7.14-3.19 7.14-7.14 0-3.95-3.19-7.15-7.14-7.15h-14.29zm57.15-71.42c-3.95 0-7.15 3.19-7.15 7.14 0 3.95 3.2 7.14 7.15 7.14h14.28v14.29c0 3.95 3.19 7.14 7.15 7.14 3.95 0 7.14-3.19 7.14-7.14v-21.43c0-3.95-3.19-7.14-7.14-7.14zm28.57 71.42c0-3.95-3.19-7.14-7.15-7.14-3.95 0-7.14 3.19-7.14 7.14v14.29h-14.28c-3.96 0-7.15 3.19-7.15 7.14 0 3.95 3.19 7.15 7.15 7.15h21.42c3.96 0 7.15-3.2 7.15-7.15z"/>
</svg>
