<svg version="1.2" xmlns="http://www.w3.org/2000/svg" viewBox="0 0 170 144" width="170" height="144">
	<style>
		.s0 { fill: gold } 
	</style>
	<path id="레이어 9" fill-rule="evenodd" class="s0" d="m102.19 22h28.12c2.6 0 4.69 2.09 4.69 4.69v28.12c0 1.9-1.13 3.62-2.89 4.34-1.76 0.72-3.77 0.33-5.12-1.02l-7.61-7.61-17 16.99c-1.83 1.83-4.8 1.83-6.62 0l-6.25-6.25c-1.83-1.84-1.83-4.81 0-6.62l16.99-17-7.63-7.63c-1.35-1.35-1.74-3.36-1.02-5.12 0.72-1.76 2.44-2.89 4.34-2.89zm-34.38 100h-28.12c-2.6 0-4.69-2.09-4.69-4.69v-28.12c0-1.9 1.13-3.62 2.89-4.34 1.76-0.72 3.77-0.33 5.12 1.02l7.62 7.61 16.99-16.99c1.83-1.83 4.8-1.83 6.62 0l6.25 6.25c1.83 1.84 1.83 4.81 0 6.62l-16.99 17 7.61 7.61c1.35 1.35 1.74 3.36 1.02 5.12-0.72 1.76-2.44 2.89-4.32 2.91z"/>
</svg>
