<svg version="1.2" xmlns="http://www.w3.org/2000/svg" viewBox="0 0 170 144" width="170" height="144">
	<style>
		.s0 { fill: gold } 
	</style>
	<path id="레이어 9" fill-rule="evenodd" class="s0" d="m103.59 40.65l-7.55-7.54c-1.33-1.34-3.33-1.73-5.07-1.01-1.74 0.72-2.86 2.42-2.86 4.3v27.84c0 2.57 2.07 4.64 4.64 4.64h27.85c1.88 0 3.58-1.12 4.3-2.86 0.71-1.74 0.33-3.73-1.01-5.07l-7.55-7.55 16.84-16.83c1.82-1.8 1.82-4.74 0-6.56l-6.19-6.19c-1.8-1.82-4.74-1.82-6.56 0zm-58.49 37.31c-0.72 1.74-0.33 3.73 1.01 5.07l7.54 7.56-16.83 16.84c-1.82 1.79-1.82 4.74 0 6.55l6.21 6.2c1.8 1.82 4.74 1.82 6.56 0l16.84-16.84 7.55 7.55c1.33 1.33 3.32 1.72 5.07 1.01 1.74-0.72 2.86-2.42 2.86-4.3v-27.86c0-2.58-2.07-4.65-4.64-4.65h-27.87c-1.88 0-3.58 1.12-4.3 2.87z"/>
</svg>
