<svg version="1.2" xmlns="http://www.w3.org/2000/svg" viewBox="0 0 170 144" width="170" height="144">
	<path id="레이어 10" fill="#FFFFFF" fill-rule="evenodd" d="m111.11 70.22c-2.75 2.41-7.22 2.41-9.97 0-2.75-2.42-2.75-6.33 0-8.74l9.11-7.99h-67.52c-3.9 0-7.05-2.76-7.05-6.18 0-3.41 3.15-6.17 7.05-6.17h67.52l-9.11-7.99c-2.75-2.41-2.75-6.33 0-8.74 2.75-2.41 7.22-2.41 9.97 0l21.14 18.52c2.75 2.42 2.75 6.33 0 8.74 0 0.02-21.14 18.55-21.14 18.55zm-73.36 30.85c-2.75-2.42-2.75-6.33 0-8.74l21.14-18.53c2.75-2.41 7.22-2.41 9.97 0 2.75 2.42 2.75 6.33 0 8.74l-9.11 7.99h67.52c3.9 0 7.05 2.76 7.05 6.18 0 3.41-3.15 6.17-7.05 6.17h-67.52l9.09 7.97c2.75 2.41 2.75 6.33 0 8.74-2.75 2.41-7.22 2.41-9.97 0 0.02 0-21.12-18.52-21.12-18.52z"/>
</svg>